<svg viewBox="0 0 300 200" xmlns="http://www.w3.org/2000/svg">
  <defs>
    <style>
      @import url('https://fonts.googleapis.com/css2?family=Poppins:wght@600&amp;family=Source+Sans+3:wght@400&amp;display=swap');
    </style>
  </defs>
  
  <!-- Logo Mark centered -->
  <g transform="translate(150, 70)">
    <g transform="rotate(10, 0, 0)">
      <!-- Golden circle behind diamond -->
      <circle cx="0" cy="0" r="38" fill="none" stroke="#C4A46B" stroke-width="3" />
      
      <!-- Green diamond shape rotated -->
      <g transform="rotate(45)">
        <rect x="-32" y="-32" width="64" height="64" fill="#2D5A27" rx="4" />
        <!-- Field lines -->
        <line x1="-32" y1="0" x2="-8" y2="0" stroke="#F5F5F0" stroke-width="2" />
        <line x1="0" y1="-32" x2="0" y2="-8" stroke="#F5F5F0" stroke-width="2" />
        <!-- Bases -->
        <rect x="-28" y="-4" width="8" height="8" fill="#F5F5F0" rx="1" />
        <rect x="-4" y="-28" width="8" height="8" fill="#F5F5F0" rx="1" />
      </g>
      
      <!-- Horizontal line across middle -->
      <line x1="-45" y1="0" x2="45" y2="0" stroke="#F5F5F0" stroke-width="2" />
      
      <!-- Hash marks -->
      <line x1="-4" y1="12" x2="4" y2="12" stroke="#F5F5F0" stroke-width="2" />
      <line x1="-4" y1="20" x2="4" y2="20" stroke="#F5F5F0" stroke-width="2" />
      <line x1="-4" y1="28" x2="4" y2="28" stroke="#F5F5F0" stroke-width="2" />
      <line x1="-4" y1="36" x2="4" y2="36" stroke="#F5F5F0" stroke-width="2" />
      
      <!-- Compass needle -->
      <polygon points="0,-32 -6,-22 0,-26 6,-22" fill="#C4A46B" />
      
      <!-- Center pivot point -->
      <circle cx="0" cy="0" r="6" fill="#8B6914" stroke="#F5F5F0" stroke-width="2" />
    </g>
  </g>
  
  <!-- Text centered below -->
  <text x="150" y="150" font-family="Poppins, sans-serif" font-weight="600" font-size="25" fill="#2D5A27" text-anchor="middle">the recruiting compass</text>
  <text x="150" y="172" font-family="Source Sans 3, sans-serif" font-weight="400" font-size="12" fill="#6B4423" text-anchor="middle" letter-spacing="0.15em">find your path • make your move</text>
</svg>
